<svg width="647" height="498" viewBox="0 0 647 498" fill="none" xmlns="http://www.w3.org/2000/svg">
<path d="M287.862 272.729L249.254 174.881L192.651 264.065H157.164L236.216 136.411L227.341 111.182H196.56V81.1201H249.251L309.772 235.019L336.38 226.351L345.247 256.164L287.862 272.729Z" fill="#F37B21"/>
<path d="M401.624 182.198C401.624 267.777 332.261 337.132 246.69 337.132C161.119 337.132 91.7539 267.778 91.7539 182.198C91.7539 96.6286 161.117 27.2646 246.69 27.2646C332.26 27.2646 401.624 96.6286 401.624 182.198Z" stroke="#F37B21" stroke-width="34"/>
<path fill-rule="evenodd" clip-rule="evenodd" d="M560.616 237.308C565.224 201.49 538.421 173.358 521.798 160C502.642 182.147 499.666 240.191 529.719 264.628C512.946 279.526 477.606 293.028 441.418 293.028H0.92279C-2.59408 330.803 4.03688 365.59 19.1835 395.363L24.1943 404.531C27.367 409.912 30.834 415.114 34.5796 420.113C52.6899 421.276 69.3876 421.676 84.6634 421.34H84.6694C114.689 420.678 139.184 417.131 157.748 410.699C159.061 410.291 160.48 410.409 161.707 411.029C162.934 411.648 163.872 412.721 164.322 414.019C164.772 415.318 164.699 416.741 164.119 417.987C163.539 419.233 162.497 420.205 161.214 420.696C158.743 421.556 156.17 422.356 153.513 423.116H153.504C138.886 427.291 123.211 430.099 102.987 431.346C104.19 431.367 101.737 431.526 101.731 431.526C101.042 431.572 100.177 431.671 99.4854 431.707C91.5258 432.155 82.935 432.248 74.1519 432.248C64.5451 432.248 55.0856 432.068 44.5079 431.526L44.2374 431.707C80.9391 472.959 138.327 497.701 210.264 497.701C362.505 497.701 491.637 430.213 548.821 278.702C589.388 282.865 628.378 272.519 646.112 237.897C617.863 221.596 581.534 226.793 560.616 237.308Z" fill="#441806"/>
<path fill-rule="evenodd" clip-rule="evenodd" d="M560.615 237.308C565.223 201.49 538.42 173.358 521.798 160C502.641 182.147 499.665 240.191 529.718 264.628C512.945 279.526 477.605 293.028 441.418 293.028H27.0069C25.2094 350.879 46.6773 394.792 84.6595 421.34H84.6685C114.688 420.678 139.183 417.131 157.747 410.699C159.06 410.291 160.479 410.409 161.706 411.029C162.933 411.648 163.871 412.721 164.321 414.019C164.771 415.318 164.699 416.741 164.119 417.987C163.539 419.233 162.497 420.205 161.213 420.696C158.742 421.556 156.169 422.356 153.512 423.116H153.503C138.885 427.291 121.863 430.459 101.64 431.707C101.634 431.707 101.15 431.241 101.144 431.241C152.956 457.819 228.082 457.723 314.215 424.637C410.794 387.533 500.666 316.846 563.372 235.997C562.428 236.424 561.508 236.86 560.615 237.308Z" fill="#CA7507"/>
<path fill-rule="evenodd" clip-rule="evenodd" d="M1.75 338.924C4.48534 359.159 10.4069 378.105 19.1841 395.362L24.1948 404.53C27.367 409.911 30.8341 415.113 34.5801 420.112C52.6935 421.276 69.3911 421.676 84.67 421.339C114.69 420.678 139.184 417.131 157.749 410.698C159.061 410.29 160.481 410.408 161.708 411.028C162.935 411.648 163.872 412.72 164.322 414.019C164.773 415.317 164.7 416.74 164.12 417.986C163.54 419.232 162.498 420.204 161.215 420.696C158.744 421.555 156.171 422.355 153.514 423.115H153.504C138.887 427.29 121.955 430.278 101.731 431.529C101.037 431.571 99.8256 431.58 99.1252 431.619C91.1717 432.064 82.6681 432.337 73.8819 432.337C64.2782 432.337 54.455 432.154 43.8833 431.616C80.585 472.869 138.328 497.7 210.264 497.7C340.599 497.7 453.993 448.229 519.806 338.924H1.75Z" fill="#572305"/>
<path fill-rule="evenodd" clip-rule="evenodd" d="M30.9766 338.924C38.7678 374.453 57.4914 402.345 84.6735 421.339C114.693 420.678 139.188 417.131 157.752 410.698C159.065 410.29 160.484 410.408 161.711 411.028C162.938 411.647 163.876 412.72 164.326 414.019C164.776 415.317 164.703 416.74 164.123 417.986C163.543 419.232 162.501 420.204 161.218 420.696C158.747 421.555 156.174 422.355 153.517 423.115H153.508C138.89 427.29 121.601 430.278 101.374 431.529C153.183 458.101 228.093 457.719 314.22 424.636C366.324 404.617 416.471 374.817 461.46 338.924H30.9766Z" fill="#FCA82C"/>
<path fill-rule="evenodd" clip-rule="evenodd" d="M185.287 378.921C187.464 378.892 189.625 379.296 191.645 380.109C193.664 380.922 195.502 382.128 197.052 383.658C198.601 385.187 199.832 387.009 200.671 389.018C201.511 391.026 201.943 393.182 201.943 395.359C201.942 397.536 201.509 399.692 200.669 401.7C199.829 403.708 198.598 405.53 197.048 407.059C195.497 408.587 193.659 409.793 191.639 410.605C189.619 411.417 187.458 411.82 185.281 411.791C180.961 411.731 176.838 409.973 173.804 406.897C170.77 403.821 169.07 399.674 169.07 395.353C169.071 391.032 170.773 386.886 173.808 383.811C176.843 380.735 180.967 378.979 185.287 378.921Z" fill="#D3ECEC"/>
<path fill-rule="evenodd" clip-rule="evenodd" d="M228.97 497.346C188.271 478.033 165.934 451.777 153.505 423.119C138.385 427.433 120.215 430.192 99.0984 431.376C91.1448 431.821 82.7765 432.05 73.9993 432.05C63.8755 432.05 53.2077 431.749 42.0078 431.157C79.3317 468.46 125.246 497.178 210.265 497.701C216.541 497.701 222.769 497.581 228.97 497.346Z" fill="#2D3638"/>
<path fill-rule="evenodd" clip-rule="evenodd" d="M168.621 449.565C162.991 441.921 157.529 432.314 153.513 423.113C138.393 427.433 120.217 430.192 99.0977 431.379C113.604 439.252 134.345 446.547 168.621 449.565Z" fill="#2D3638"/>
<path d="M190.176 384.31C188.854 383.796 187.42 383.513 185.917 383.513C183.392 383.514 180.934 384.327 178.907 385.832C176.879 387.336 175.39 389.453 174.658 391.87C173.926 394.286 173.99 396.874 174.842 399.251C175.694 401.628 177.288 403.668 179.388 405.069C181.488 406.471 183.983 407.16 186.505 407.035C189.027 406.909 191.441 405.976 193.392 404.373C195.343 402.77 196.726 400.582 197.338 398.132C197.949 395.683 197.757 393.101 196.789 390.769C195.971 392.26 194.393 393.267 192.575 393.267C191.52 393.264 190.495 392.914 189.658 392.27C188.822 391.627 188.221 390.726 187.948 389.706C187.675 388.687 187.745 387.606 188.148 386.631C188.551 385.655 189.263 384.84 190.176 384.31Z" fill="#2D3638"/>
</svg>
